<svg xmlns="http://www.w3.org/2000/svg" width="94" height="94" viewBox="0 0 94 94">
  <g fill="none" fill-rule="evenodd">
    <polygon fill="none" points="0 93.5 93.5 93.5 93.5 0 0 0"/>
    <path fill="#231815" d="M25.4257,78.2266 C20.0327,76.2216 16.1797,72.6786 16.1797,67.1306 C16.1797,66.0596 16.3347,64.9696 16.6467,63.7436 C18.0287,59.1296 22.5057,56.1906 29.7267,55.5876 C34.0297,55.2766 36.5007,55.8996 36.5007,53.7386 C36.5007,49.7286 25.2697,52.5126 19.2547,45.4266 C16.0237,41.7286 14.4857,37.4256 14.4857,33.2606 C14.4857,28.3356 16.6467,23.5666 20.3447,20.0236 C25.2697,15.0996 33.4457,12.0236 46.2147,12.0236 C59.1397,12.1796 68.0737,15.0996 73.6217,19.5766 C77.0097,22.4966 78.3907,26.0386 78.3907,29.1146 C78.3907,29.8926 78.3907,30.6526 78.2357,31.2756 C77.3207,35.2856 74.6937,38.3606 67.6077,38.3606 C66.0697,38.3606 64.3757,38.0486 62.9937,38.0486 C61.3007,38.0486 60.2307,38.3606 60.2307,40.0546 C60.2307,43.9086 67.4707,43.1296 74.0897,49.4366 C77.4767,52.6676 79.0137,57.1256 79.0137,61.6026 C79.0137,65.6126 77.7877,69.6026 75.3167,72.6986 C70.8577,78.4016 64.6877,80.3866 54.8377,81.1656 C52.0737,81.4766 49.2897,81.4766 46.5257,81.4766 C38.9727,81.4576 31.9067,80.5426 25.4257,78.2266"/>
  </g>
</svg>
